<?xml version="1.0" encoding="UTF-8" standalone="no"?>
<!-- Created with Inkscape (http://www.inkscape.org/) -->

<svg
   xmlns:dc="http://purl.org/dc/elements/1.1/"
   xmlns:cc="http://creativecommons.org/ns#"
   xmlns:rdf="http://www.w3.org/1999/02/22-rdf-syntax-ns#"
   xmlns:svg="http://www.w3.org/2000/svg"
   xmlns="http://www.w3.org/2000/svg"
   xmlns:sodipodi="http://sodipodi.sourceforge.net/DTD/sodipodi-0.dtd"
   xmlns:inkscape="http://www.inkscape.org/namespaces/inkscape"
   id="svg2"
   version="1.1"
   inkscape:version="0.48.0 r9654"
   width="746"
   height="990"
   sodipodi:docname="18_ABC_SSI.svg"
   style="display:inline">
  <metadata
     id="metadata8">
    <rdf:RDF>
      <cc:Work
         rdf:about="">
        <dc:format>image/svg+xml</dc:format>
        <dc:type
           rdf:resource="http://purl.org/dc/dcmitype/StillImage" />
        <dc:title></dc:title>
      </cc:Work>
    </rdf:RDF>
  </metadata>
  <defs
     id="defs6" />
  <sodipodi:namedview
     pagecolor="#ffffff"
     bordercolor="#666666"
     borderopacity="1"
     objecttolerance="10"
     gridtolerance="10"
     guidetolerance="10"
     inkscape:pageopacity="0"
     inkscape:pageshadow="2"
     inkscape:window-width="1280"
     inkscape:window-height="949"
     id="namedview4"
     showgrid="false"
     inkscape:zoom="0.42140707"
     inkscape:cx="516.79698"
     inkscape:cy="157.31369"
     inkscape:window-x="0"
     inkscape:window-y="25"
     inkscape:window-maximized="1"
     inkscape:current-layer="layer2" />
  <g
     inkscape:groupmode="layer"
     id="layer2"
     inkscape:label="Insignia"
     style="display:inline">
    <path
       sodipodi:nodetypes="ccccc"
       inkscape:connector-curvature="0"
       id="path3858"
       d="m 693.95493,949.95566 0,-629.29065 -633.591679,0 0,629.26443 z"
       style="fill:#ffffff;stroke:none" />
    <path
       style="fill:#0034ff;fill-opacity:1;stroke:none"
       d="m 236.46875,585.78125 c 3.48119,-0.0147 7.60573,0.10694 12.875,0.4375 3.37948,2.3401 6.57512,5.01683 8.78125,9.3125 -0.0593,3.21377 -1.64558,7.92864 3.125,6.3125 1.53654,6.03564 -2.33001,8.15149 -4.875,11.21875 -3.02643,-0.73791 -3.18069,1.2201 -2.75,2.84375 -1.98366,4.35639 -7.4142,5.64066 -12.875,6.90625 -1.19004,1.8488 -1.13191,2.27159 -4.46875,6.625 -5.49106,-3.9228 0.48676,-6.84035 -6.4375,-7.78125 l 0.78125,-3.6875 c 7.99687,0.8325 7.59454,-1.54375 5.03125,-8.78125 -1.91073,-4.62811 -4.14061,-7.46049 -8.125,-6.25 -6.97729,1.2083 -4.96005,8.12504 -2.25,8.84375 -0.34292,3.7916 -0.86385,7.11541 -2.28125,7.78125 -3.72837,-5.76588 -5.85769,-2.72493 -8,-0.53125 -5.40628,-1.68852 -9.85324,-7.67371 -10.125,-9.15625 -1.98976,-10.37008 6.3051,-17.81412 16.9375,-22.90625 4.79073,-0.71242 8.85426,-1.16301 14.65625,-1.1875 z m 126.59375,66.0625 c -12.11964,41.83929 -41.40193,80.34381 -103.21875,105.3125 -17.78184,-5.34007 -42.45408,-17.00847 -30.25,-36.5 -0.98803,-4.52114 -5.23341,-3.93892 -10.09375,-2.375 -10.45911,8.42562 -14.27943,26.42241 -3.5625,41.53125 -11.55652,-4.2635 -14.54324,-17.07424 -17.1875,-30.25 17.91161,-9.08026 22.55088,-21.98966 28.3125,-34.84375 41.61823,-28.39722 58.58728,5.77202 136,-42.875 z m 291.875,189.84375 c -22.20304,-22.19433 -31.01971,-42.49848 -40.34375,-65.84375 -17.42403,-35.37339 -0.64264,-83.36008 -24.90625,-98.1875 -17.01622,33.97461 -49.05472,64.52688 -94.90625,62 0.93278,63.46229 6.58684,3.3273 5.46875,79.78125 37.2934,10.20714 81.80029,4.74291 106.34375,-31.84375 -5.47499,36.34274 -64.20295,51.47881 -98.375,47.40625 -0.0456,5.90673 -5.67419,-0.80473 -3.78125,18.03125 3.60138,38.41036 14.72417,64.13841 28.75,97.96875 l 48.20997,20.59425 139.41503,-1.15675 -6.53125,-77.71875 4.75,-342.90625 -31.90625,-2.78125 C 644.07278,527.3726 670.40804,516.84667 672.875,479.0625 l -14.28125,-12.15625 c -21.54665,-1.51416 -20.05204,7.24859 -31.25,5.03125 C 606.13741,455.13339 614.47321,440.51693 614.125,424.53125 L 594.40625,404.375 C 541.33773,441.44802 526.77842,391.71692 527.3125,370 c -1.17464,-5.86869 -5.53079,-9.20446 -10.625,-11.9375 -9.74894,0.39953 -20.29015,1.28177 -30.1875,7.71875 -18.04936,11.73883 -27.36166,34.8166 -77.5,-10.46875 -16.23944,2.64028 -26.25312,10.63887 -30.1875,23.90625 -6.78276,16.01137 -12.5231,12.1476 -12.59375,18.46875 -0.21234,19.00023 -15.61633,21.54086 -23.5,20.125 -0.48556,10.14462 -2.20661,20.58211 -0.40625,30.21875 4.73246,5.54637 6.32808,13.55414 17.1875,14.25 -2.01962,1.69381 -4.39576,2.63167 -7.53125,2.09375 -21.3061,-16.36734 -14.56196,-31.9561 -17.21875,-47.8125 -2.07259,-5.19226 -5.73463,-10.27337 -11.21875,-11.5 -29.5459,-6.60849 -27.64521,-26.77975 -37.84375,-31.28125 -11.29211,-4.98696 -50.11733,-9.58542 -47.84375,10.46875 15.42758,9.65119 39.211,19.81645 46.15625,28.9375 6.11617,17.72545 6.10214,35.6547 27.6875,47.84375 5.16005,29.67838 -6.44104,21.47689 -7.125,0 -16.41032,-8.36703 -16.30952,-24.24042 -21.40625,-37.75 -14.08867,-15.71416 -32.64175,-26.15273 -49.5,-38.59375 -9.00418,-4.4994 -15.37978,-5.41875 -28.9375,1.65625 -1.53062,2.51695 -1.70348,5.04555 -0.4375,7.5625 7.93276,6.66378 2.08115,-6.15145 26.4375,23.0625 6.39856,5.12011 12.23455,9.55003 11.3125,23.0625 9.98847,14.46233 26.51154,22.33146 25.90625,52.34375 2.82612,1.3699 5.4656,2.04276 8.8125,0.84375 3.08797,-1.85787 2.92749,-6.16001 4.71875,-9.125 5.53116,3.03183 18.80544,5.44665 10.15625,13.90625 12.06827,20.24776 17.90875,19.89229 15.8125,27.5 -8.09113,-6.67333 -6.31468,-12.65569 -20.5,-23.78125 -3.02526,-2.68072 -2.73579,10.29196 -11.75,1.25 -6.98237,-4.77363 -7.79917,2.91823 -10.0625,-10.0625 -6.42682,-17.87787 -13.94217,-35.36055 -27.28125,-50.75 -2.58477,-3.28625 -1.83157,-6.95568 -2.09375,-10.5 -12.47612,-14.84014 -26.95222,-29.34368 -42.78125,-43.625 -8.40956,4.07143 -8.17075,-2.42466 -12.0625,-3.875 -8.09927,9.1295 0.60296,9.18014 -18.96875,8.0625 l -6.3125,6.3125 c -17.73507,-9.46083 -49.478,-5.99393 -58.9375,6.59375 -5.957073,6.33093 -7.778773,20.85929 -0.5625,19.40625 15.43571,-15.39296 109.57124,17.71417 144.15625,87.90625 -4.44588,6.52576 -8.17163,13.03674 -8.3125,19.5625 -30.09794,3.0932 -39.90865,6.89246 -49.25,45.09375 3.1212,-0.1033 5.16976,0.51349 7.125,1.1875 -15.89654,15.66621 -44.14749,36.31075 -40.21875,52.03125 14.50331,0.96348 18.47583,-14.96996 42.65625,-1.96875 1.93086,3.19116 -2.81745,8.10773 -7.84375,1.21875 -11.06969,-6.98126 -23.42368,2.35212 -32.5625,4.5 -29.80511,16.83733 -29.4089,49.62982 -6.53125,52.78125 -18.55685,10.46673 -11.36304,-9.95234 -22.53125,-14.8125 -6.64234,4.98729 -14.34356,10.94599 -13.65625,20.15625 -14.052682,0.0599 -20.592612,2.99215 -27.28125,7.125 3.150287,6.35268 3.360476,7.20425 -4.75,5.9375 -5.821582,4.77038 -8.014214,16.51509 -7.125,39.75 19.929467,1.0999 13.445425,-17.41211 30.84375,-20.78125 -1.095856,21.23307 -5.006369,59.38714 36.78125,45.09375 6.52615,8.35475 3.89998,16.08569 10.09375,21.34375 4.96364,-5.14151 9.24898,-10.26474 17.21875,-15.40625 -1.35724,-3.68233 -2.18618,-7.19672 -1.1875,-10.09375 2.52133,-0.14827 5.30679,0.57013 7.09375,-1.78125 0.7986,-7.40423 5.06574,-9.62739 8.90625,-12.46875 3.3053,-19.67596 6.38267,-30.11174 11.5625,-22.21875 -5.98624,17.06886 -12.93153,29.56531 1.5,49.53125 -27.23601,16.13419 -44.91701,24.4125 -56.96875,42.125 1.23508,-15.45401 -9.75727,-25.73103 -20.75,-37.375 -10.62505,8.14892 -3.02365,22.74421 -10.09375,53.96875 -23.115902,27.59443 -21.560779,56.9137 -26.6875,86.03125 22.92872,4.79922 19.963594,-19.22506 51.84375,-35.4375 39.95135,-19.4834 56.98826,-9.6169 60.28125,-20.34375 l -41.53125,-26.09375 c 13.10416,-18.86878 31.04856,-31.70594 50.4375,-42.71875 25.61848,26.59454 11.20562,34.39806 13.625,57.5625 24.96334,-3.76376 31.26639,-11.4977 33.8125,-26.125 10.91384,5.14354 -10.74393,29.81829 30.875,31.4375 10.09833,7.31776 6.46957,13.59852 7.09375,20.1875 17.74054,2.5188 23.57291,-40.6751 6.53125,-56.375 10.37739,-2.36701 18.64711,-1.93648 26.6875,-1.1875 7.60775,8.82773 5.53131,18.9788 0.59375,27.90625 14.19717,8.26314 41.89334,-35.52044 -4.71875,-59.34375 12.82916,-18.3475 18.81697,-8.46589 16,-30.84375 15.18849,-24.11808 43.77088,-40.10429 46.875,-75.34375 22.85726,-8.68953 33.90527,-33.47499 37.375,-46.28125 -3.7524,-1.66467 -13.40625,-1.75 -13.40625,-1.75 -1.96152,-4.72148 -8.6459,-7.48637 -13.65625,-10.9375 2.78584,-10.8036 -1.80186,-22.76314 -20.875,-40.46875 14.89632,3.17032 22.55422,19.71063 27,40 l 13.40625,5.125 c 7.50521,-8.08631 15.321,-17.74605 13.46875,-29.34375 -8.35785,-13.47158 -7.01228,-21.54405 -5.34375,-30.25 L 386.21875,543.875 c -5.20027,-8.75977 -0.48907,-7.58581 4.125,-6.53125 9.41659,6.06971 14.73521,23.93349 28.5,29.65625 8.56433,-7.76533 20.82146,-12.7422 33.8125,-17.1875 -3.35736,-17.12605 -5.17824,-34.57308 -2.96875,-52.8125 -5.36228,-12.36617 -11.96928,-19.80761 -18.40625,-27.875 -0.45456,-9.9972 3.91502,-11.05838 11.28125,-6.53125 20.27347,4.48607 40.15499,5.55762 59.3125,0 13.39556,8.64648 26.847,16.11097 39.15625,48.65625 24.11713,13.22562 34.65237,37.44132 29.6875,74.15625 27.78115,5.19503 16.58209,29.89356 22.53125,85.4375 34.20379,37.16342 30.80495,85.35233 32.625,95.5 19.55875,20.29071 6.24127,50.6015 34.9375,65.75 1.33391,3.79369 -0.36002,10.1647 -5.875,9.59375 z"
       id="path2990"
       inkscape:connector-curvature="0"
       sodipodi:nodetypes="sccccccccccccccccscccccccccccccccccccccccccccccsccscccccscccccccccccccccccccccccccccccccccccccccccccccccccccccccccccccccccccccccccccccccccccccccccc" />
    <path
       style="fill:#0034ff;fill-opacity:1;stroke:none"
       d="m 438.95301,471.15299 c 21.2408,16.62702 15.65645,36.37791 15.18033,58.78117 0.51274,5.53922 0.2162,9.8428 4.00881,13.34505 0.048,4.00785 0.096,8.52159 0.14394,13.64785 6.55203,2.87095 8.51878,12.85575 16.90765,19.87389 6.30714,0.73931 12.695,0.91355 19.28064,-0.29662 21.93127,-18.02042 24.5696,-40.68237 38.56129,-60.51156 -10.59206,-31.07621 -31.21781,-40.36334 -43.01067,-49.2398 -11.03729,8.33944 -30.39171,8.89967 -47.46005,-0.29663 -1.80606,0.44358 -3.9531,1.72793 -3.61194,4.69665 z"
       id="path3779"
       inkscape:connector-curvature="0"
       sodipodi:nodetypes="cccccccccc" />
    <path
       style="fill:#0034ff;fill-opacity:1;stroke:none"
       d="m 543.24153,517.86229 c -13.6755,6.29237 -31.39195,53.48517 -45.93432,63.76271 -4.84001,1.51486 -11.78808,-3.5352 -15.83581,3.14619 -0.57094,2.2893 0.53268,10.18245 5.34852,10.48728 4.54641,15.14607 -0.52094,13.2869 0.62924,28.52543 -5.99726,-0.439 -3.29302,1.95062 -2.7267,11.11652 9.11669,11.88727 16.99274,8.71909 52.64619,-3.14618 -9.9797,12.04872 -24.0156,18.24747 -45.30509,16.04554 -1.7238,63.77509 -5.59582,18.95465 -4.6144,72.88666 0.091,4.16542 4.3758,12.0918 12.58474,12.375 37.97008,2.9991 72.22198,-31.23228 87.04449,-58.09958 -9.17245,-22.45863 7.36339,-65.56579 -20.34534,-84.73729 -0.0813,-37.21449 -8.90599,-57.14701 -23.49152,-72.36228 z"
       id="path3013"
       inkscape:connector-curvature="0"
       sodipodi:nodetypes="ccccccccccccc" />
    <path
       style="fill:#0034ff;stroke:none"
       d="m 298.7304,680.46769 c -2.51163,24.75136 -22.45461,46.26811 -61.2982,54.48146 -0.21543,3.54017 -0.45456,7.08331 0.4195,10.48729 4.94869,3.74484 10.4207,6.93104 19.19173,8.70445 46.0455,-21.14687 71.4812,-48.87433 99.10488,-93.02225 -16.45491,9.65978 -26.84399,15.83535 -57.41791,19.34905 z"
       id="path3786"
       inkscape:connector-curvature="0"
       sodipodi:nodetypes="cccccc" />
    <path
       style="fill:#0034ff;fill-opacity:1;fill-rule:evenodd;stroke:none"
       d="m 17.625,280.125 0,713.21875 717.3125,0 0,-713.21875 -717.3125,0 z m 50.78125,48 618.59375,0 0,618.75 -618.59375,0 0,-618.75 z"
       id="rect3804"
       inkscape:connector-curvature="0" />
    <path
       style="fill:none;stroke:#ffffff;stroke-width:2;stroke-miterlimit:4;stroke-opacity:1;stroke-dasharray:none"
       d="m 693.95493,949.95566 0,-629.29065 -633.591679,0 0,629.26443 2.237521,0.0272"
       id="rect3817"
       inkscape:connector-curvature="0"
       sodipodi:nodetypes="ccccc" />
    <path
       style="fill:#0034ff;stroke:none"
       d="M 0,287.04633 0,72.572029 c 224.6474,-79.383818 424.36436,-112.801493 746.30926,0 l 0,210.421561 C 493.79818,163.43209 230.81861,186.87803 0,287.04633 z"
       id="path3820"
       inkscape:connector-curvature="0"
       sodipodi:nodetypes="ccccc" />
    <path
       style="fill:none;stroke:#000000;stroke-width:3;stroke-linecap:butt;stroke-linejoin:miter;stroke-miterlimit:4;stroke-opacity:1;stroke-dasharray:none"
       d="m 31.442282,100.12409 0,142.38014 c 232.577688,-99.80537 508.194278,-92.76735 684.611198,0 l 0,-142.973392 C 520.60964,17.886282 263.28009,11.432642 31.442282,100.12409 z"
       id="path3822"
       inkscape:connector-curvature="0"
       sodipodi:nodetypes="ccccc" />
  </g>
  <g
     inkscape:groupmode="layer"
     id="layer3"
     inkscape:label="Text"
     style="display:inline">
    <path
       style="fill:#ffffff;stroke:none"
       d="m 108.22881,176.18644 10.0678,13.84322 18.24788,-6.08263 -46.062645,-79.78285 -12.456421,4.90361 -10.067796,2.09746 8.38983,93.9661 20.345339,-7.97034 -3.731525,-13.92624 z M 89.7287,165.18762 84.364699,128.44857 103.7507,159.66715 z"
       id="path3825"
       inkscape:connector-curvature="0"
       sodipodi:nodetypes="cccccccccccccc" />
    <path
       style="fill:#ffffff;stroke:none"
       d="m 174.37221,171.90245 -23.4682,-87.584514 -23.06067,6.179087 23.61247,88.122927 z"
       id="path3827"
       inkscape:connector-curvature="0"
       sodipodi:nodetypes="ccccc" />
    <path
       style="fill:#ffffff;stroke:none"
       d="m 392.3125,52.75 c -11.97262,0.03413 -23.95196,6.055786 -28.0625,18 l 0,58.4375 c 5.16882,23.58889 45.17449,25.00898 56.96875,0 L 420.3125,70.75 c -4.06116,-12.080716 -16.02738,-18.034125 -28,-18 z m 0.25,17.03125 c 3.61062,0.07271 6.99191,1.766412 8.25,4.875 l 0.21875,52.4375 c -4.85369,5.37388 -14.29888,5.25912 -18.03125,0 l 0,-52.4375 c 2.12784,-3.399438 5.95188,-4.947712 9.5625,-4.875 z"
       id="path3831"
       inkscape:connector-curvature="0" />
    <path
       style="fill:#ffffff;stroke:none"
       d="m 522.35716,158.8559 18.97299,5.0838 11.57942,-58.47636 5.04263,62.58794 20.00585,5.36056 20.92844,-91.08527 -17.50089,-2.669628 -11.56839,56.062178 -5.04263,-59.028431 -21.55781,-5.776398 z"
       id="path3836"
       inkscape:connector-curvature="0" />
    <path
       style="fill:#ffffff;stroke:none"
       d="m 631.21865,92.708456 46.86679,15.721144 -4.15275,16.61101 -27.2611,-7.30459 -4.22235,15.75803 24.34666,6.52367 -4.60653,17.19181 -26.8346,-7.19031 -4.77054,17.80389 27.33069,10.31343 -4.53028,16.90726 -50.3454,-16.31401 z"
       id="path3838"
       inkscape:connector-curvature="0"
       sodipodi:nodetypes="ccccccccccccc" />
    <path
       style="fill:#ffffff;stroke:none"
       d="m 220.71875,69.1875 c -2.39246,-0.0129 -5.00036,0.214604 -7.8125,0.6875 l -29.875,8 18.09375,86.3125 21.28125,-3.46875 -8.53125,-31.8125 c 2.24425,-4.41352 10.25919,-7.58477 16,-1.78125 l 7.4375,30.53125 20.15625,-4.03125 -8.125,-30.25 c -1.07947,-6.02536 -4.1795,-11.03266 -13.125,-13.125 12.43216,-9.20764 12.73101,-40.910316 -15.5,-41.0625 z m -4.6875,18.5 c 5.09693,0 9.25,4.121817 9.25,9.21875 0,2.575615 -6.74854,9.21875 -9.25,9.21875 -2.35315,0 -9.21875,-4.19598 -9.21875,-9.21875 0,-7.024997 1.6005,-9.21875 9.21875,-9.21875 z"
       id="path3840"
       inkscape:connector-curvature="0"
       sodipodi:nodetypes="sccccccccccssssss" />
    <path
       sodipodi:nodetypes="sccccccccccssssss"
       inkscape:connector-curvature="0"
       id="path3846"
       d="m 484.69154,62.537505 c -2.3076,-0.631675 -4.88553,-1.086897 -7.72424,-1.35795 l -30.92758,-0.0048 -4.8621,88.054475 21.45388,2.15744 -0.007,-32.93656 c 3.31008,-3.68228 11.8727,-4.67106 15.91583,2.42055 l -0.71799,31.41588 20.51281,1.32294 -0.0189,-31.32216 c 0.51679,-6.09944 -1.18162,-11.73847 -9.28077,-16.07478 14.39166,-5.67622 22.88558,-36.221302 -4.34409,-43.675023 z m -9.31593,16.656413 c 4.92325,1.319183 7.868,6.375446 6.54882,11.298705 -0.66662,2.487853 -8.90458,7.157978 -11.3208,6.510553 -2.27297,-0.60904 -7.81863,-6.438994 -6.51864,-11.290617 1.8182,-6.785626 3.93195,-8.490389 11.29062,-6.518641 z"
       style="fill:#ffffff;stroke:none" />
    <path
       style="fill:#ffffff;stroke:none"
       d="m 311,57.53125 -39.59375,3.15625 7.71875,90.75 41.21875,-5.9375 c 22.049,-8.98522 19.81057,-38.02906 0,-49.8125 C 333.85335,89.526432 333.28191,62.513825 311,57.53125 z m -9.375,18.0625 c 6.42254,0 8.8125,2.112431 8.8125,8.3125 0,5.384348 -6.76518,8.8125 -8.8125,8.8125 -4.86525,0 -8.8125,-2.409057 -8.8125,-8.3125 0,-6.051756 1.42593,-8.8125 8.8125,-8.8125 z m 3.59375,33.6875 c 7.82182,0 9.45115,7.48768 10.0444,11.75 -2.22469,5.00388 -7.85846,11.37922 -10.0444,11.37922 -12.64198,0 -7.51909,-4.89221 -7.51909,-11.37922 0,-9.45326 -5.19704,-11.75 7.51909,-11.75 z"
       id="path3848"
       inkscape:connector-curvature="0"
       sodipodi:nodetypes="ccccccsssssscsss" />
  </g>
</svg>
